# xmcd
#
# Track frame offsets: 
#        150
#        14043
#        25518
#        38118
#        51731
#        64549
#        75181
#        90031
#        102225
#        115543
#        125933
#        140691
#
# Disc length: 2047 seconds
#
# Revision: 0
# Processed by: cddbd v1.5.2PL0 Copyright (c) Steve Scherf et al.
# Submitted via: ExactAudioCopyFreeDBPlugin 1.0
#
DISCID=9407fd0c
DTITLE=費玉清 - 中華民國
DYEAR=1980
DGENRE=國語歌曲
TTITLE0=中華民國
TTITLE1=白雲長在天
TTITLE2=儂本痴情
TTITLE3=楓葉的祝福
TTITLE4=深秋
TTITLE5=秋雨、伊人、我
TTITLE6=愛心
TTITLE7=舊時情
TTITLE8=微風彩雲
TTITLE9=片片彩霞
TTITLE10=思念總在分手後
TTITLE11=晚安曲
EXTD=
EXTT0=
EXTT1=
EXTT2=
EXTT3=
EXTT4=
EXTT5=
EXTT6=
EXTT7=
EXTT8=
EXTT9=
EXTT10=
EXTT11=
PLAYORDER=
